<svg xmlns="http://www.w3.org/2000/svg" viewBox="0 0 345 40.1"><g id="Capa_2" data-name="Capa 2"><g id="buhuhu"><path id="logo" d="M34.89,30l0-.06-.07-.05-.08,0a.71.71,0,0,0-.33-.05,1.05,1.05,0,0,0-.24.05l0,0h0l0,0,0,0-.25.14-.25.06-.26,0-.31,0s-.25,0-.49,0a4.32,4.32,0,0,1-.6-.11,5,5,0,0,1-1.41-.57,4.11,4.11,0,0,1-1.56-2.27,5.33,5.33,0,0,1-.27-1.68c0-5,0-7.5,0-9.92C28.7,11.47,27,6.24,23.12,3.12A14.48,14.48,0,0,0,14.31,0,14.68,14.68,0,0,0,4.92,3.58,15,15,0,0,0,.08,14.67c0,1.42-.12,6.5-.06,10.94A12.54,12.54,0,0,0,.3,28.34a13.94,13.94,0,0,0,2,4.59c4,6.19,13.29,6.34,15.08,6.34a22.14,22.14,0,0,0,7.15-.8,22.87,22.87,0,0,0,10.15-7.18,1,1,0,0,0,.09-.13l.09-.13.07-.13a1.33,1.33,0,0,0,.06-.23A1.1,1.1,0,0,0,34.89,30ZM7.25,20.76c-1.74,0-3.15-2.23-3.15-5s1.41-5,3.15-5,3.16,2.23,3.16,5S9,20.76,7.25,20.76Zm10.26,0c-1.74,0-3.16-2.23-3.16-5s1.42-5,3.16-5,3.16,2.23,3.16,5S19.26,20.76,17.51,20.76Z"/><path d="M37.26,39.49V0h20q6.24,0,9.1,3.15a10.39,10.39,0,0,1,2.86,7.2,9.1,9.1,0,0,1-1.66,5.33,8.47,8.47,0,0,1-5,3.28q7.67,1.86,7.66,9.2A12.42,12.42,0,0,1,67.6,36q-2.7,3.45-11.55,3.45ZM48.42,15.15H54a3.65,3.65,0,0,0,3-1.07,3.61,3.61,0,0,0,.86-2.29q0-3.28-4-3.29H48.42Zm0,15.55h5.9a4.26,4.26,0,0,0,3.22-1.08,3.47,3.47,0,0,0,1-2.45,3.73,3.73,0,0,0-1-2.5q-1-1.14-3.66-1.14H48.42Z"/><path d="M103.49,10.09v29.4H92.83V34.66q-2.35,5.45-9.14,5.44a8.72,8.72,0,0,1-6.49-2.33,9.08,9.08,0,0,1-2.3-6.66v-21H86.44v18.5A4.65,4.65,0,0,0,86.91,31a2.09,2.09,0,0,0,1.87.71,3.06,3.06,0,0,0,2.4-1,4.4,4.4,0,0,0,.92-3V10.09Z"/><path d="M138.44,39.49H126.91V21.8a7.34,7.34,0,0,0-.53-3.34,2.18,2.18,0,0,0-2.06-.91,3.15,3.15,0,0,0-2.06.71,2.59,2.59,0,0,0-1,1.46,22.29,22.29,0,0,0-.14,3.15V39.49H109.56V0H121.1V13.56a9.79,9.79,0,0,1,8.15-4.08,10.74,10.74,0,0,1,4.47.88,7.57,7.57,0,0,1,3,2.27,8.39,8.39,0,0,1,1.4,2.69,22.66,22.66,0,0,1,.36,5Z"/><path d="M173.14,10.09v29.4H162.47V34.66q-2.34,5.45-9.14,5.44a8.72,8.72,0,0,1-6.49-2.33,9.08,9.08,0,0,1-2.3-6.66v-21h11.54v18.5a4.54,4.54,0,0,0,.48,2.44,2.07,2.07,0,0,0,1.86.71,3.06,3.06,0,0,0,2.4-1,4.35,4.35,0,0,0,.93-3V10.09Z"/><path d="M208.09,39.49H196.55V21.8a7.34,7.34,0,0,0-.53-3.34,2.17,2.17,0,0,0-2.06-.91,3.12,3.12,0,0,0-2.05.71,2.57,2.57,0,0,0-1,1.46,22.29,22.29,0,0,0-.14,3.15V39.49H179.21V0h11.53V13.56a9.79,9.79,0,0,1,8.15-4.08,10.74,10.74,0,0,1,4.47.88,7.57,7.57,0,0,1,3,2.27,8.43,8.43,0,0,1,1.41,2.69,22.66,22.66,0,0,1,.36,5Z"/><path d="M242.78,10.09v29.4H232.11V34.66q-2.34,5.45-9.13,5.44a8.71,8.71,0,0,1-6.49-2.33c-1.54-1.55-2.3-3.77-2.3-6.66v-21h11.53v18.5A4.54,4.54,0,0,0,226.2,31a2.08,2.08,0,0,0,1.86.71,3,3,0,0,0,2.4-1,4.35,4.35,0,0,0,.93-3V10.09Z"/><path d="M259.43,28.94V39.49h-11V28.94Z"/><path d="M308.43,0V39.49H297.18V11.27l-7.3,28.22H282.2l-7.59-28.22V39.49h-9.08V0h15.83l5.72,21,5.46-21Z"/><path d="M345,39.49H332l-5.4-9.39-5.77,9.39h-9.37L321.79,23.9l-9.05-13.81h12.82l3,5.48c.14.25.3.54.5.87.09.15.23.4.4.75.21-.33.47-.77.78-1.33,0-.1.15-.3.32-.61l3-5.16h9.52l-8.61,13.38Z"/></g></g></svg>