<svg xmlns="http://www.w3.org/2000/svg" viewBox="0 0 22.55 25.31"><defs><style>.cls-1{fill:#04163a;}</style></defs><g id="Capa_2" data-name="Capa 2"><g id="iconos"><path id="logo" class="cls-1" d="M22.49,19.3l0,0,0,0-.05,0a.49.49,0,0,0-.22,0,.64.64,0,0,0-.15,0h0l0,0h0l-.16.09-.16,0-.17,0h-.52a2.89,2.89,0,0,1-.38-.07,3,3,0,0,1-.91-.37,2.69,2.69,0,0,1-1-1.46,3.53,3.53,0,0,1-.17-1.09c0-3.22,0-4.83,0-6.39A10.34,10.34,0,0,0,14.9,2,9.35,9.35,0,0,0,9.22,0,9.42,9.42,0,0,0,3.17,2.31,9.67,9.67,0,0,0,.05,9.46c0,.91-.07,4.19,0,7.05a8.62,8.62,0,0,0,.18,1.76,9,9,0,0,0,1.28,2.95c2.57,4,8.56,4.09,9.71,4.09a14.33,14.33,0,0,0,4.61-.51,14.73,14.73,0,0,0,6.54-4.63l.06-.09.06-.08a.87.87,0,0,0,.08-.23A.73.73,0,0,0,22.49,19.3ZM4.68,13.38c-1.13,0-2-1.44-2-3.21S3.55,7,4.68,7s2,1.44,2,3.22S5.8,13.38,4.68,13.38Zm6.61,0c-1.13,0-2-1.44-2-3.21S10.16,7,11.29,7s2,1.44,2,3.22S12.41,13.38,11.29,13.38Z"/></g></g></svg>